<svg width="88" height="230" viewBox="0 0 88 230" fill="none" xmlns="http://www.w3.org/2000/svg">
<path d="M8.09664 13.356C14.4375 5.67087 30.471 -6.14498 43.8774 8.07247C57.2839 22.2899 39.1972 48.8996 28.4781 60.4273C23.194 63.6294 12.1729 69.073 10.3612 65.2305C8.09663 60.4273 6.73786 50.3406 25.3077 41.6948C37.2346 36.5714 62.9907 31.1278 70.5998 50.3406C74.0722 58.6661 74.6761 78.007 49.3125 88.7661L17.608 102.695M17.608 102.695C5.53007 103.179 -11.8319 97.4206 15.3434 70.514C23.9489 66.3512 44.7833 57.9296 59.2768 57.5454C67.5804 59.3065 83.5534 68.0163 81.0171 88.7661C81.319 92.9289 75.6726 103.272 50.6713 111.341C44.9343 112.622 32.1015 115.28 26.6665 115.664L7.19084 118.546L17.608 102.695ZM17.608 102.695C25.5332 100.454 44.2376 96.6434 55.6535 99.3331C69.9233 102.695 75.582 99.8135 86.905 118.546C88.8677 128.152 87.4486 147.845 66.0707 149.767C44.6927 151.688 30.8937 148.005 26.6665 145.924V128.152M26.6665 128.152C42.2168 129.593 75.582 128.537 84.6404 112.782C89.0187 101.575 89.3508 78.6794 55.6535 76.7581C47.5009 77.0784 30.1087 78.103 25.7606 79.6401L26.6665 113.743C42.5187 115.184 75.8538 122.004 82.3758 137.759C85.8482 146.885 86.9956 166.098 63.806 169.94C55.2005 170.26 35.7249 169.075 26.6665 161.775M26.6665 128.152V161.775M26.6665 128.152C36.4798 130.554 58.0992 137.182 66.0707 144.483C75.733 152.488 89.8943 172.342 69.2411 187.712C62.7492 190.113 45.5079 192.035 28.4781 180.507M26.6665 161.775L28.4781 180.507M26.6665 161.775C37.5366 169.46 59.7297 188.096 61.5414 201.161C62.2963 209.166 60.2733 225.849 46.1421 228.539C42.5187 229.179 33.5509 229.115 26.6665 223.736L28.4781 180.507" stroke="#84829A" stroke-width="0.902388"/>
</svg>
