<svg width="97" height="33" viewBox="0 0 97 33" fill="none" xmlns="http://www.w3.org/2000/svg">
<rect x="0.264282" y="0.572266" width="96.5555" height="31.5836" rx="15.7918" fill="#080809"/>
<g clip-path="url(#clip0_2702_502)">
<path d="M25.9891 15.9145L16.9259 24.6417C16.5015 24.3516 16.2495 23.8692 16.254 23.3551V8.47379C16.2495 7.95976 16.5015 7.4773 16.9259 7.18726L25.9891 15.9145Z" fill="#2196F3"/>
<path d="M29.1604 12.866L25.9891 15.9144L16.9259 7.18718C16.9601 7.16072 16.9956 7.1361 17.0324 7.11343C17.5114 6.82312 18.1097 6.81374 18.5976 7.08885L29.1604 12.866Z" fill="#4CAF50"/>
<path d="M33.0037 15.9143C33.0096 16.4946 32.6943 17.0306 32.1842 17.3074L29.1604 18.9627L25.9891 15.9143L29.1604 12.866L32.1842 14.5213C32.6943 14.7981 33.0096 15.3341 33.0037 15.9143Z" fill="#F0BB1F"/>
<path d="M29.1604 18.9627L18.5976 24.7398C18.1086 25.0107 17.5126 25.0013 17.0324 24.7153C16.9956 24.6926 16.9601 24.668 16.9259 24.6415L25.9891 15.9143L29.1604 18.9627Z" fill="#F15A2B"/>
</g>
<path d="M43.6006 11.2926H41.0667V12.3033H42.4167C42.2362 12.787 41.7959 13.0829 41.1245 13.0829C40.1427 13.0829 39.5363 12.4549 39.5363 11.5958C39.5363 10.7079 40.1716 10.0798 41.0234 10.0798C41.5937 10.0798 42.0485 10.3397 42.2579 10.6718L43.2397 10.1087C42.8138 9.43007 41.998 8.95361 41.0306 8.95361C39.5435 8.95361 38.3812 10.1231 38.3812 11.5886C38.3812 13.0396 39.5218 14.2091 41.11 14.2091C42.525 14.2091 43.6006 13.2706 43.6006 11.7257V11.2926Z" fill="white"/>
<path d="M45.0459 12.9963V12.1011H46.8507V11.0038H45.0459V10.1664H47.0312V9.05468H43.8909V14.1081H47.0673V12.9963H45.0459Z" fill="white"/>
<path d="M50.751 9.05468H46.9971V10.1664H48.2965V14.1081H49.4516V10.1664H50.751V9.05468Z" fill="white"/>
<path d="M52.3395 9.05468V14.1081H53.4945V9.05468H52.3395Z" fill="white"/>
<path d="M57.3948 9.05468H53.6409V10.1664H54.9403V14.1081H56.0954V10.1664H57.3948V9.05468Z" fill="white"/>
<path d="M61.3945 14.2091C62.8455 14.2091 64.0222 13.0685 64.0222 11.5814C64.0222 10.0942 62.8455 8.95361 61.3945 8.95361C59.9434 8.95361 58.7667 10.0942 58.7667 11.5814C58.7667 13.0685 59.9434 14.2091 61.3945 14.2091ZM61.3945 13.0829C60.5715 13.0829 59.9218 12.4838 59.9218 11.5814C59.9218 10.679 60.5715 10.0798 61.3945 10.0798C62.2175 10.0798 62.8672 10.679 62.8672 11.5814C62.8672 12.4838 62.2175 13.0829 61.3945 13.0829Z" fill="white"/>
<path d="M67.1271 9.05468V11.7979L65.1779 9.05468H64.3116V14.1081H65.4667V11.3648L67.4158 14.1081H68.2821V9.05468H67.1271Z" fill="white"/>
<path d="M43.6006 19.8761V20.071C43.6006 20.7015 43.3768 21.2333 42.9293 21.6665C42.4817 22.0948 41.8921 22.309 41.1606 22.309C40.3905 22.309 39.7553 22.0587 39.2547 21.5582C38.7542 21.0528 38.504 20.4344 38.504 19.7029C38.504 18.9713 38.7518 18.3553 39.2475 17.8548C39.7432 17.3494 40.3713 17.0968 41.1317 17.0968C41.5937 17.0968 42.0172 17.2075 42.4023 17.4288C42.7921 17.6502 43.0929 17.9462 43.3047 18.3168L42.9654 18.5189C42.7969 18.2013 42.5466 17.9462 42.2146 17.7537C41.8873 17.5612 41.5263 17.4649 41.1317 17.4649C40.4772 17.4649 39.9381 17.6815 39.5146 18.1147C39.0959 18.543 38.8866 19.0724 38.8866 19.7029C38.8866 20.3333 39.0983 20.8651 39.5218 21.2983C39.9454 21.7266 40.4916 21.9408 41.1606 21.9408C41.7525 21.9408 42.2314 21.7796 42.5972 21.4571C42.9629 21.1346 43.1675 20.728 43.2108 20.2371H41.0667V19.8761H43.6006Z" fill="white"/>
<path d="M48.725 21.5509C48.2196 22.0563 47.6036 22.309 46.8769 22.309C46.1501 22.309 45.5341 22.0563 45.0288 21.5509C44.5234 21.0408 44.2708 20.4248 44.2708 19.7029C44.2708 18.9809 44.5234 18.3673 45.0288 17.862C45.5341 17.3518 46.1501 17.0968 46.8769 17.0968C47.6036 17.0968 48.2196 17.3518 48.725 17.862C49.2303 18.3673 49.483 18.9809 49.483 19.7029C49.483 20.4248 49.2303 21.0408 48.725 21.5509ZM45.2959 21.2911C45.729 21.7242 46.256 21.9408 46.8769 21.9408C47.4977 21.9408 48.0223 21.7242 48.4506 21.2911C48.8838 20.8531 49.1004 20.3237 49.1004 19.7029C49.1004 19.082 48.8838 18.555 48.4506 18.1219C48.0223 17.6839 47.4977 17.4649 46.8769 17.4649C46.256 17.4649 45.729 17.6839 45.2959 18.1219C44.8676 18.555 44.6534 19.082 44.6534 19.7029C44.6534 20.3237 44.8676 20.8531 45.2959 21.2911Z" fill="white"/>
<path d="M54.6187 21.5509C54.1133 22.0563 53.4973 22.309 52.7706 22.309C52.0439 22.309 51.4278 22.0563 50.9225 21.5509C50.4172 21.0408 50.1645 20.4248 50.1645 19.7029C50.1645 18.9809 50.4172 18.3673 50.9225 17.862C51.4278 17.3518 52.0439 17.0968 52.7706 17.0968C53.4973 17.0968 54.1133 17.3518 54.6187 17.862C55.124 18.3673 55.3767 18.9809 55.3767 19.7029C55.3767 20.4248 55.124 21.0408 54.6187 21.5509ZM51.1896 21.2911C51.6228 21.7242 52.1497 21.9408 52.7706 21.9408C53.3914 21.9408 53.916 21.7242 54.3444 21.2911C54.7775 20.8531 54.9941 20.3237 54.9941 19.7029C54.9941 19.082 54.7775 18.555 54.3444 18.1219C53.916 17.6839 53.3914 17.4649 52.7706 17.4649C52.1497 17.4649 51.6228 17.6839 51.1896 18.1219C50.7613 18.555 50.5471 19.082 50.5471 19.7029C50.5471 20.3237 50.7613 20.8531 51.1896 21.2911Z" fill="white"/>
<path d="M61.1549 19.8761V20.071C61.1549 20.7015 60.9311 21.2333 60.4835 21.6665C60.0359 22.0948 59.4464 22.309 58.7148 22.309C57.9448 22.309 57.3095 22.0587 56.809 21.5582C56.3085 21.0528 56.0582 20.4344 56.0582 19.7029C56.0582 18.9713 56.3061 18.3553 56.8018 17.8548C57.2975 17.3494 57.9256 17.0968 58.686 17.0968C59.148 17.0968 59.5715 17.2075 59.9565 17.4288C60.3464 17.6502 60.6472 17.9462 60.8589 18.3168L60.5196 18.5189C60.3512 18.2013 60.1009 17.9462 59.7688 17.7537C59.4416 17.5612 59.0806 17.4649 58.686 17.4649C58.0314 17.4649 57.4924 17.6815 57.0689 18.1147C56.6502 18.543 56.4408 19.0724 56.4408 19.7029C56.4408 20.3333 56.6526 20.8651 57.0761 21.2983C57.4996 21.7266 58.0459 21.9408 58.7148 21.9408C59.3068 21.9408 59.7857 21.7796 60.1514 21.4571C60.5172 21.1346 60.7218 20.728 60.7651 20.2371H58.621V19.8761H61.1549Z" fill="white"/>
<path d="M62.4964 21.8686H64.8787V22.2295H62.1138V17.1762H62.4964V21.8686Z" fill="white"/>
<path d="M66.0566 21.8686H68.5833V22.2295H65.674V17.1762H68.5472V17.5371H66.0566V19.5007H68.3667V19.8617H66.0566V21.8686Z" fill="white"/>
<path d="M73.166 17.1762C73.6184 17.1762 73.9938 17.3254 74.2922 17.6238C74.5906 17.9221 74.7398 18.2951 74.7398 18.7427C74.7398 19.1903 74.5906 19.5633 74.2922 19.8617C73.9938 20.1553 73.6184 20.302 73.166 20.302H71.8305V22.2295H71.4479V17.1762H73.166ZM73.166 19.9411C73.5125 19.9411 73.7965 19.828 74.0179 19.6018C74.2441 19.3756 74.3572 19.0892 74.3572 18.7427C74.3572 18.3914 74.2441 18.1026 74.0179 17.8764C73.7965 17.6502 73.5125 17.5371 73.166 17.5371H71.8305V19.9411H73.166Z" fill="white"/>
<path d="M76.0675 21.8686H78.4498V22.2295H75.6849V17.1762H76.0675V21.8686Z" fill="white"/>
<path d="M82.7863 22.2295L82.2954 20.9445H79.7615L79.2706 22.2295H78.8663L80.8299 17.1762H81.2342L83.1905 22.2295H82.7863ZM79.9058 20.5836H82.1582L81.032 17.6454L79.9058 20.5836Z" fill="white"/>
<path d="M86.7861 17.1762L84.9452 20.1504V22.2295H84.5626V20.1504L82.7217 17.1762H83.1549L84.7575 19.7823L86.353 17.1762H86.7861Z" fill="white"/>
<defs>
<clipPath id="clip0_2702_502">
<rect width="18.0478" height="18.0478" fill="white" transform="translate(15.605 6.88892)"/>
</clipPath>
</defs>
</svg>
