<svg width="84" height="71" viewBox="0 0 84 71" fill="none" xmlns="http://www.w3.org/2000/svg">
<path d="M83.814 54.3753C83.814 63.3461 76.5417 70.6183 67.571 70.6183L43.2065 70.6183C40.7146 70.6183 38.6946 68.5982 38.6946 66.1064L38.6946 35.4252C38.6946 30.4414 42.7347 26.4013 47.7184 26.4013L79.302 26.4013C81.7939 26.4013 83.814 28.4214 83.814 30.9133L83.814 54.3753Z" fill="#FFF1DA"/>
<path d="M22.0248 45.9447L20.321 45.1291L10.1992 60.0948H21.4953L22.5838 59.3851V46.4569L22.0248 45.9447Z" fill="#407093"/>
<path d="M20.4749 45.2028L16.6442 43.3689H15.9222L5.09021 59.3851L5.73508 60.0948H10.4031L20.4749 45.2028Z" fill="#365E7D"/>
<path d="M24.6173 59.3849H9.68058C9.00202 59.3849 8.4519 59.9349 8.4519 60.6136V62.1706C8.4519 62.849 9.0019 63.399 9.68033 63.3991H24.6173C25.2959 63.3991 25.846 62.8491 25.846 62.1706V60.6136C25.846 59.9349 25.2959 59.3849 24.6173 59.3849V59.3849Z" fill="#4A80AA"/>
<path d="M8.70622 62.1706V60.6136C8.70622 59.9351 9.25634 59.3849 9.93489 59.3849H2.02298C1.34443 59.3849 0.794312 59.9349 0.794312 60.6136V62.1706C0.794312 62.8491 1.34443 63.3991 2.02298 63.3991H9.93477C9.25622 63.3991 8.70622 62.8491 8.70622 62.1706V62.1706Z" fill="#407093"/>
<path d="M19.9607 36.312C19.5009 37.2604 19.2411 38.3239 19.2411 39.449C19.2411 42.5233 21.1662 45.1458 23.8757 46.1833C25.039 45.8188 26.0726 45.1614 26.8891 44.2958V42.7249L19.9607 36.312Z" fill="#4A80AA"/>
<path d="M19.3625 39.4736C19.3625 38.3746 19.6166 37.3358 20.0666 36.4096L17.8519 34.3597H16.9533C15.5943 35.6416 14.7448 37.4578 14.7448 39.4735C14.7448 43.3565 17.8925 46.5043 21.7755 46.5043C22.5844 46.5043 23.36 46.3655 24.083 46.1139C21.3352 45.158 19.3625 42.547 19.3625 39.4736V39.4736Z" fill="#407093"/>
<path d="M60.1822 1.06649C59.0696 -0.0460887 57.2658 -0.0460887 56.1533 1.06649L53.4346 3.78526V4.12984L56.8279 7.66731L57.4634 7.81413L60.1821 5.09536C61.2948 3.9829 61.2948 2.17907 60.1822 1.06649V1.06649Z" fill="#FFD086"/>
<path d="M60.9338 2.41125C60.8151 1.91875 60.5666 1.45104 60.1822 1.06649C59.0696 -0.0460887 57.2658 -0.0460887 56.1533 1.06649L53.4346 3.78526V4.12984L55.2337 6.00536C56.3063 4.8892 57.3713 3.78773 57.9189 3.24007C58.8319 2.32724 60.1653 2.32021 60.9338 2.41125V2.41125Z" fill="#FFC365"/>
<path d="M50.8745 8.30867C50.8433 8.30867 50.8117 8.30707 50.78 8.30399L19.3621 5.21152C18.8381 5.15995 18.4553 4.69347 18.5069 4.16951C18.5584 3.64554 19.0251 3.26296 19.5489 3.31416L50.9668 6.40651C51.4906 6.45808 51.8736 6.92455 51.822 7.44852C51.7735 7.9409 51.3589 8.30867 50.8745 8.30867Z" fill="#365E7D"/>
<path d="M28.4489 14.1903C28.0261 14.1903 27.6398 13.9068 27.5275 13.4787C27.3939 12.9694 27.6985 12.4483 28.2077 12.3147L50.6321 6.43287C51.1412 6.29951 51.6625 6.60387 51.796 7.11315C51.9296 7.62231 51.6251 8.14344 51.1158 8.27705L28.6914 14.1589C28.6103 14.1801 28.5288 14.1903 28.4489 14.1903V14.1903Z" fill="#407093"/>
<path d="M56.9648 42.767C56.48 42.767 56.0654 42.3989 56.0171 41.9064L52.9439 10.4692C52.8927 9.94538 53.2759 9.47903 53.7999 9.42771C54.3238 9.37886 54.7901 9.75983 54.8413 10.2838L57.9145 41.721C57.9657 42.2448 57.5825 42.7112 57.0585 42.7625C57.0271 42.7654 56.9957 42.767 56.9648 42.767Z" fill="#365E7D"/>
<path d="M47.9217 33.8438C47.8409 33.8438 47.7587 33.8333 47.6768 33.8117C47.1679 33.6767 46.8648 33.1549 46.9997 32.6459L52.9682 10.1349C53.103 9.62589 53.6248 9.32326 54.1338 9.45774C54.6427 9.59271 54.9458 10.1146 54.8109 10.6235L48.8424 33.1345C48.7293 33.5616 48.3435 33.8438 47.9217 33.8438V33.8438Z" fill="#407093"/>
<path d="M50.7025 6.51654L53.4282 3.79085L57.4565 7.81916L54.7308 10.5449L50.7025 6.51654Z" fill="#FFC365"/>
<path d="M52.7726 8.5753C53.4278 7.88934 54.4508 6.81945 55.4402 5.79077L53.4348 3.78522L50.7086 6.51127L52.7726 8.5753Z" fill="#FFA90F"/>
<path d="M55.3444 12.1002C55.1005 12.1002 54.8565 12.007 54.6704 11.821L49.4279 6.57861C49.0556 6.20627 49.0556 5.60286 49.4279 5.23039C49.8002 4.8583 50.4037 4.8583 50.776 5.23039L56.0185 10.4728C56.3909 10.8451 56.3909 11.4485 56.0185 11.821C55.8324 12.0071 55.5884 12.1002 55.3444 12.1002Z" fill="#4A80AA"/>
<path d="M55.9597 44.483L24.0415 12.288C19.8098 21.8412 19.0749 32.0966 22.2429 40.9401C30.992 48.8323 44.0616 50.0442 56.0934 45.0831L55.9597 44.483Z" fill="#B5DCFF"/>
<path d="M24.2114 12.4594L16.8985 5.08307L16.1657 5.15537C11.0133 17.651 12.5178 31.2668 21.2499 39.9989C21.7788 40.5278 22.326 41.0296 22.8895 41.5057C19.2085 32.6727 19.8068 22.167 24.2114 12.4594V12.4594Z" fill="#8BCAFF"/>
<path d="M58.8764 42.1947L26.5046 9.82281C26.186 9.87192 25.8793 10.0168 25.6341 10.262L24.226 11.6702C23.9236 11.9726 23.7732 12.3675 23.7689 12.7639L56.0381 45.033C56.5179 45.5128 57.2958 45.5128 57.7756 45.033L58.8766 43.9321C59.3562 43.4524 59.3562 42.6745 58.8764 42.1947Z" fill="#DBEDFF"/>
<path d="M24.2747 11.6943L25.6533 10.3156C25.9072 10.0617 26.2279 9.91634 26.5588 9.87699L19.0542 2.37245C18.5745 1.89265 17.7966 1.89265 17.3167 2.37245L16.2157 3.47343C15.7359 3.95323 15.7359 4.7311 16.2157 5.21089L23.8257 12.8209C23.8157 12.4143 23.9644 12.0046 24.2747 11.6943V11.6943Z" fill="#B5DCFF"/>
</svg>
