<svg width="70" height="60" viewBox="0 0 70 60" fill="none" xmlns="http://www.w3.org/2000/svg">
<path d="M24.5509 43.473C24.5509 52.4437 31.8231 59.7159 40.7939 59.7159L65.1584 59.7159C67.6502 59.7159 69.6703 57.6959 69.6703 55.204L69.6703 24.5228C69.6703 19.5391 65.6302 15.4989 60.6464 15.4989L29.0628 15.4989C26.571 15.4989 24.5509 17.519 24.5509 20.0109L24.5509 43.473Z" fill="#FFF1DA"/>
<path d="M45.3058 25.2882V20.1479C45.3058 19.1402 44.489 18.3233 43.4813 18.3233H41.5153C40.7292 18.3233 40.0317 17.8196 39.7846 17.0734C39.5093 16.2421 39.1749 15.4377 38.7863 14.6653C38.4324 13.9619 38.5679 13.1114 39.1247 12.5545L40.5156 11.1636C41.2282 10.451 41.2282 9.29577 40.5156 8.58321L36.8809 4.94843C36.1683 4.23587 35.0131 4.23587 34.3005 4.94843L32.9095 6.33941C32.3527 6.89628 31.5022 7.03163 30.7987 6.67776C30.0263 6.28921 29.222 5.95476 28.3907 5.6795C27.6444 5.43239 27.1408 4.7349 27.1408 3.94881V1.98289C27.1408 0.975195 26.3239 0.158325 25.3162 0.158325H20.1759C19.1682 0.158325 18.3513 0.975195 18.3513 1.98289V3.9489C18.3513 4.73499 17.8476 5.43248 17.1014 5.6796C16.2701 5.95485 15.4658 6.2893 14.6934 6.67785C13.9899 7.03173 13.1394 6.89628 12.5826 6.3395L11.1916 4.94852C10.479 4.23596 9.3238 4.23596 8.61124 4.94852L4.97663 8.58331C4.26407 9.29587 4.26407 10.4511 4.97663 11.1636L6.36761 12.5546C6.92439 13.1115 7.05984 13.962 6.70596 14.6654C6.31741 15.4378 5.98296 16.2422 5.70771 17.0735C5.53304 17.6008 5.1335 18.007 4.63674 18.1999C4.43057 18.28 4.29839 18.4141 4.0678 18.4141H2.10179C1.09409 18.4141 0.277222 19.2309 0.277222 20.2386V25.1974C0.277222 26.2051 1.09409 27.022 2.10179 27.022H4.0678C4.85389 27.022 5.55138 27.6164 5.79849 28.3627C6.07375 29.194 6.40819 29.9982 6.79675 30.7707C7.15062 31.4742 7.01517 32.3246 6.4584 32.8815L5.1582 34.2725C4.44564 34.9851 4.44564 36.1403 5.1582 36.8528L8.61142 40.3061C9.32398 41.0186 10.4792 41.0186 11.1918 40.3061L12.5827 38.9151C13.1395 38.3582 13.9901 38.2228 14.6935 38.5767C15.4659 38.9653 16.4518 39.3905 17.2831 39.6658C18.0294 39.9129 18.5331 40.6104 18.5331 41.3965V43.3625C18.5331 44.3702 19.3499 45.187 20.3576 45.187H25.2256C26.2333 45.187 27.0502 44.3702 27.0502 43.3625V41.3965C27.0502 41.1659 27.1843 41.0337 27.2643 40.8275C27.4573 40.3307 27.8635 39.9312 28.3908 39.7565C29.2221 39.4813 30.0264 39.1468 30.7988 38.7583C31.5023 38.4044 32.3528 38.5399 32.9096 39.0966L34.3006 40.4876C35.0132 41.2002 36.1684 41.2002 36.8809 40.4876L40.5157 36.8528C41.2283 36.1403 41.2283 34.9851 40.5157 34.2725L39.1247 32.8815C38.568 32.3246 38.4325 31.4742 38.7864 30.7707C39.175 29.9983 39.5094 29.194 39.7847 28.3627C40.0318 27.6164 40.7293 27.1128 41.5154 27.1128H43.4814C44.489 27.1128 45.3058 26.2959 45.3058 25.2882V25.2882Z" fill="#B6C4CF"/>
<path d="M27.2644 40.8275C27.1845 41.0336 27.1409 41.2569 27.1409 41.4875V43.4529C27.1409 44.4606 26.3239 45.2777 25.3162 45.2777H20.176C19.1683 45.2777 18.3513 44.4606 18.3513 43.4529V41.4875C18.3513 40.7013 17.8474 40.0032 17.1012 39.7562C16.2705 39.4812 15.4662 39.1471 14.6936 38.7585C13.99 38.4045 13.1394 38.5397 12.5829 39.0963L11.1921 40.4871C10.4794 41.1997 9.32376 41.1997 8.61111 40.4871L4.97614 36.853C4.2644 36.1403 4.2644 34.9847 4.97614 34.272L6.36785 32.8812C6.92435 32.3247 7.05962 31.4741 6.70556 30.7705C6.31701 29.9979 5.98293 29.1936 5.70785 28.3629C5.46092 27.6167 4.7628 27.1128 3.97661 27.1128H2.01115C1.00345 27.1128 0.186401 26.2958 0.186401 25.2881V20.1479C0.186401 19.1402 1.00345 18.3232 2.01115 18.3232H3.97661C4.2072 18.3232 4.43053 18.2796 4.63661 18.1997C4.63479 18.3132 4.63388 18.4276 4.63388 18.542C4.63388 30.8513 14.6128 40.8302 26.9221 40.8302C27.0365 40.8302 27.1509 40.8293 27.2644 40.8275V40.8275Z" fill="#9FACBA"/>
<path d="M22.7461 37.6973C31.0189 37.6973 37.7254 30.9908 37.7254 22.718C37.7254 14.4452 31.0189 7.73874 22.7461 7.73874C14.4733 7.73874 7.76685 14.4452 7.76685 22.718C7.76685 30.9908 14.4733 37.6973 22.7461 37.6973Z" fill="#9FACBA"/>
<path d="M22.7459 34.5199C29.2639 34.5199 34.5478 29.236 34.5478 22.718C34.5478 16.2 29.2639 10.9162 22.7459 10.9162C16.228 10.9162 10.9441 16.2 10.9441 22.718C10.9441 29.236 16.228 34.5199 22.7459 34.5199Z" fill="#F8F7F7"/>
</svg>
