<svg width="44" height="45" viewBox="0 0 44 45" fill="none" xmlns="http://www.w3.org/2000/svg">
<rect x="0.844116" y="0.93335" width="42.4122" height="43.3146" rx="11.731" fill="#F15A2B"/>
<path d="M30.4591 29.7454C30.0529 29.7537 29.6539 29.6375 29.3156 29.4124C29.0639 29.2479 28.7697 29.1603 28.469 29.1603C28.1682 29.1603 27.874 29.2479 27.6223 29.4124C27.2806 29.6299 26.884 29.7454 26.479 29.7454C26.0739 29.7454 25.6773 29.6299 25.3357 29.4124C25.0839 29.2477 24.7896 29.16 24.4888 29.16C24.188 29.16 23.8937 29.2477 23.642 29.4124C23.3003 29.6299 22.9037 29.7454 22.4987 29.7454C22.0937 29.7454 21.6971 29.6299 21.3554 29.4124C21.1038 29.2478 20.8098 29.1602 20.5092 29.1602C20.2086 29.1602 19.9145 29.2478 19.6629 29.4124C19.3532 29.6182 18.9917 29.7326 18.6199 29.7425L18.5994 29.1572C18.874 29.1506 19.1407 29.0637 19.3664 28.9072C19.708 28.6897 20.1045 28.5742 20.5095 28.5742C20.9144 28.5742 21.3109 28.6897 21.6525 28.9072C21.9042 29.0718 22.1984 29.1594 22.4991 29.1594C22.7999 29.1594 23.0941 29.0718 23.3458 28.9072C23.6875 28.6895 24.0843 28.5739 24.4894 28.5739C24.8946 28.5739 25.2913 28.6895 25.633 28.9072C25.8847 29.0718 26.179 29.1594 26.4797 29.1594C26.7804 29.1594 27.0747 29.0718 27.3264 28.9072C27.6681 28.6898 28.0647 28.5743 28.4697 28.5743C28.8747 28.5743 29.2713 28.6898 29.613 28.9072C29.8653 29.0722 30.1603 29.16 30.4617 29.16C30.7632 29.16 31.0581 29.0722 31.3105 28.9072C31.6483 28.6827 32.0466 28.5667 32.4521 28.5747V29.1601C32.1502 29.1518 31.8535 29.2401 31.6052 29.4121C31.2661 29.6375 30.8662 29.7539 30.4591 29.7454V29.7454Z" fill="white"/>
<path d="M14.541 29.7454C14.1349 29.7538 13.7359 29.6376 13.3979 29.4124C13.1496 29.2403 12.8529 29.1519 12.5509 29.1601V28.5748C12.9571 28.5663 13.3562 28.6826 13.6944 28.9078C13.9425 29.08 14.2391 29.1684 14.541 29.1601C14.8431 29.1684 15.1398 29.0799 15.388 28.9075C15.7254 28.6824 16.1239 28.5663 16.5294 28.5748C16.9251 28.5659 17.3143 28.6768 17.6459 28.8929L17.3506 29.398C17.1084 29.235 16.8213 29.1518 16.5294 29.1601C16.2286 29.152 15.9331 29.2402 15.6859 29.4118C15.3475 29.6377 14.9478 29.7541 14.541 29.7454V29.7454Z" fill="white"/>
<path d="M30.46 27.6965C30.0536 27.7048 29.6543 27.5886 29.3157 27.3634C29.0638 27.1988 28.7693 27.1111 28.4683 27.1111C28.1673 27.1111 27.8728 27.1988 27.6209 27.3634C27.2793 27.5809 26.8827 27.6964 26.4777 27.6964C26.0728 27.6964 25.6762 27.5809 25.3346 27.3634C25.083 27.1989 24.7888 27.1113 24.4882 27.1113C24.1875 27.1113 23.8934 27.1989 23.6418 27.3634C23.3002 27.581 22.9036 27.6965 22.4986 27.6965C22.0937 27.6965 21.6971 27.581 21.3555 27.3634C21.1039 27.1989 20.8097 27.1113 20.5091 27.1113C20.2084 27.1113 19.9143 27.1989 19.6627 27.3634C19.3246 27.5887 18.9257 27.7049 18.5195 27.6965C18.1134 27.7049 17.7144 27.5887 17.3764 27.3634C17.1283 27.1913 16.8318 27.1029 16.53 27.1112C16.2283 27.103 15.9319 27.1914 15.6839 27.3634C15.3464 27.5884 14.9481 27.7047 14.5425 27.6965C14.1363 27.7049 13.7372 27.5887 13.3991 27.3634C13.1505 27.191 12.8533 27.1026 12.5509 27.1112V26.5258C12.957 26.5174 13.356 26.6337 13.6941 26.8589C13.9423 27.031 14.2391 27.1194 14.541 27.1112C14.8427 27.1194 15.1392 27.031 15.3871 26.8589C15.7247 26.6339 16.123 26.5177 16.5285 26.5258C16.935 26.5172 17.3343 26.6335 17.6726 26.8589C17.9207 27.0311 18.2173 27.1195 18.5192 27.1112C18.8211 27.1195 19.1178 27.0311 19.3659 26.8589C19.7075 26.6413 20.1041 26.5258 20.5091 26.5258C20.9141 26.5258 21.3107 26.6413 21.6522 26.8589C21.9039 27.0235 22.1981 27.1111 22.4988 27.1111C22.7995 27.1111 23.0937 27.0235 23.3453 26.8589C23.6869 26.6413 24.0835 26.5258 24.4885 26.5258C24.8935 26.5258 25.29 26.6413 25.6316 26.8589C25.8833 27.0235 26.1775 27.1111 26.4782 27.1111C26.7789 27.1111 27.073 27.0235 27.3247 26.8589C27.6666 26.6414 28.0635 26.5259 28.4687 26.5259C28.874 26.5259 29.2708 26.6414 29.6128 26.8589C29.8649 27.0234 30.1594 27.111 30.4605 27.111C30.7615 27.111 31.0561 27.0234 31.3082 26.8589C31.6466 26.6338 32.0458 26.5176 32.4522 26.5258V27.1112C32.1496 27.1026 31.8523 27.191 31.6035 27.3634C31.2652 27.5884 30.8662 27.7046 30.46 27.6965V27.6965Z" fill="white"/>
<path d="M30.4592 25.6481C30.0529 25.6564 29.6539 25.5401 29.3157 25.315C29.0674 25.1429 28.7707 25.0545 28.4687 25.0627C28.2471 25.0551 28.027 25.1024 27.8281 25.2003L27.5699 24.6735C27.8494 24.5365 28.1577 24.469 28.4687 24.4765C28.8754 24.4682 29.2749 24.5848 29.6133 24.8105C29.8657 24.9754 30.1606 25.0633 30.4621 25.0633C30.7635 25.0633 31.0585 24.9754 31.3108 24.8105C31.6485 24.5858 32.0467 24.4696 32.4522 24.4774V25.0627C32.1503 25.0545 31.8536 25.1427 31.6052 25.3147C31.2662 25.5402 30.8662 25.6565 30.4592 25.6481Z" fill="white"/>
<path d="M26.476 25.648C26.0704 25.6565 25.672 25.5404 25.3346 25.3153C25.0828 25.1506 24.7885 25.0629 24.4877 25.0629C24.1869 25.0629 23.8926 25.1506 23.6409 25.3153C23.2993 25.5328 22.9026 25.6483 22.4976 25.6483C22.0926 25.6483 21.696 25.5328 21.3543 25.3153C21.1026 25.1507 20.8084 25.0631 20.5076 25.0631C20.2069 25.0631 19.9127 25.1507 19.6609 25.3153C19.3229 25.5401 18.9243 25.6562 18.5184 25.648C18.1122 25.6564 17.7133 25.5402 17.3752 25.315C17.1269 25.1429 16.8302 25.0545 16.5282 25.0627C16.2274 25.0546 15.9319 25.1428 15.6848 25.3144C15.3466 25.54 14.9474 25.6565 14.541 25.648C14.1349 25.6564 13.7359 25.5402 13.3979 25.315C13.1496 25.1429 12.8529 25.0545 12.5509 25.0627V24.4774C12.9571 24.4689 13.3562 24.5852 13.6944 24.8104C13.9425 24.9826 14.2391 25.071 14.541 25.0627C14.8431 25.071 15.1398 24.9825 15.388 24.8101C15.7255 24.585 16.1239 24.4688 16.5294 24.4774C16.9355 24.469 17.3345 24.5852 17.6726 24.8104C17.9207 24.9826 18.2173 25.071 18.5192 25.0627C18.8212 25.0709 19.118 24.9825 19.3662 24.8104C19.7079 24.5929 20.1045 24.4774 20.5095 24.4774C20.9145 24.4774 21.3112 24.5929 21.6528 24.8104C21.9045 24.975 22.1988 25.0626 22.4995 25.0626C22.8003 25.0626 23.0945 24.975 23.3462 24.8104C23.6879 24.5927 24.0846 24.4771 24.4898 24.4771C24.8949 24.4771 25.2917 24.5927 25.6334 24.8104C25.8912 24.9838 26.197 25.072 26.5076 25.0624C26.5302 25.0627 26.5527 25.0615 26.5752 25.0589L26.653 25.639C26.5943 25.6458 26.5351 25.6488 26.476 25.648V25.648Z" fill="white"/>
<path d="M30.46 23.5991C30.0536 23.6074 29.6543 23.4912 29.3157 23.266C29.0638 23.1014 28.7693 23.0137 28.4683 23.0137C28.1673 23.0137 27.8728 23.1014 27.6209 23.266C27.2793 23.4835 26.8827 23.599 26.4777 23.599C26.0728 23.599 25.6762 23.4835 25.3346 23.266C25.083 23.1015 24.7888 23.0139 24.4882 23.0139C24.1875 23.0139 23.8934 23.1015 23.6418 23.266C23.3002 23.4836 22.9036 23.5991 22.4986 23.5991C22.0937 23.5991 21.6971 23.4836 21.3555 23.266C21.1039 23.1015 20.8097 23.0139 20.5091 23.0139C20.2084 23.0139 19.9143 23.1015 19.6627 23.266C19.3246 23.4913 18.9257 23.6075 18.5195 23.5991C18.1134 23.6075 17.7144 23.4913 17.3764 23.266C17.1283 23.0939 16.8318 23.0055 16.53 23.0138C16.2283 23.0056 15.9319 23.094 15.6839 23.266C15.3464 23.491 14.9481 23.6073 14.5425 23.5991C14.1363 23.6075 13.7372 23.4913 13.3991 23.266C13.1505 23.0936 12.8533 23.0052 12.5509 23.0138V22.4284C12.957 22.42 13.356 22.5363 13.6941 22.7615C13.9423 22.9336 14.2391 23.022 14.541 23.0138C14.8427 23.022 15.1392 22.9336 15.3871 22.7615C15.7247 22.5365 16.123 22.4203 16.5285 22.4284C16.935 22.4198 17.3343 22.536 17.6726 22.7615C17.9207 22.9336 18.2173 23.022 18.5192 23.0138C18.8211 23.022 19.1178 22.9336 19.3659 22.7615C19.7075 22.5439 20.1041 22.4284 20.5091 22.4284C20.9141 22.4284 21.3107 22.5439 21.6522 22.7615C21.9039 22.9261 22.1981 23.0137 22.4988 23.0137C22.7995 23.0137 23.0937 22.9261 23.3453 22.7615C23.6869 22.5439 24.0835 22.4284 24.4885 22.4284C24.8935 22.4284 25.29 22.5439 25.6316 22.7615C25.8833 22.9261 26.1775 23.0137 26.4782 23.0137C26.7789 23.0137 27.073 22.9261 27.3247 22.7615C27.6666 22.544 28.0635 22.4285 28.4687 22.4285C28.874 22.4285 29.2708 22.544 29.6128 22.7615C29.8649 22.926 30.1594 23.0136 30.4605 23.0136C30.7615 23.0136 31.0561 22.926 31.3082 22.7615C31.6466 22.5364 32.0458 22.4202 32.4522 22.4284V23.0138C32.1496 23.0052 31.8523 23.0936 31.6035 23.266C31.2652 23.491 30.8662 23.6072 30.46 23.5991V23.5991Z" fill="white"/>
<path d="M26.2896 23.3509L25.7373 23.1571C25.8795 22.7485 25.9376 22.3153 25.9081 21.8836C25.8786 21.4519 25.7621 21.0307 25.5655 20.6452L23.5552 16.7085C23.5353 16.6697 23.5244 16.6268 23.5233 16.5832C23.5221 16.5396 23.5307 16.4962 23.5485 16.4564C23.5662 16.4165 23.5927 16.3811 23.6259 16.3528C23.6591 16.3244 23.6983 16.3039 23.7404 16.2927L27.7467 15.2244C27.8773 15.1903 27.9891 15.106 28.0578 14.9898C28.1265 14.8737 28.1466 14.7351 28.1136 14.6042C28.0807 14.4734 27.9974 14.3608 27.8819 14.2911C27.7664 14.2213 27.628 14.2 27.4968 14.2317L22.6479 15.3907C22.5443 15.4152 22.4476 15.4632 22.3655 15.531C22.2834 15.5989 22.218 15.6847 22.1744 15.7819C22.1308 15.8791 22.1101 15.985 22.114 16.0914C22.1179 16.1978 22.1463 16.302 22.1969 16.3957L23.6368 19.0706C23.6734 19.1386 23.6815 19.2183 23.6596 19.2923C23.6377 19.3663 23.5874 19.4286 23.5198 19.4657L21.6613 20.4901L21.3789 19.9773L22.9833 19.0929L21.6821 16.6731C21.589 16.5004 21.5369 16.3085 21.5298 16.1125C21.5227 15.9164 21.5608 15.7213 21.6412 15.5422C21.7215 15.3632 21.8419 15.2051 21.9932 15.08C22.1444 14.955 22.3224 14.8664 22.5133 14.8211L27.3598 13.6625C27.642 13.5912 27.9409 13.6349 28.1908 13.784C28.4407 13.9331 28.6212 14.1753 28.6925 14.4575C28.7638 14.7396 28.7201 15.0386 28.571 15.2885C28.4219 15.5384 28.1796 15.7189 27.8975 15.7902L24.2409 16.7647L26.087 20.3786C26.3195 20.8347 26.4573 21.3332 26.4921 21.844C26.5269 22.3548 26.458 22.8674 26.2896 23.3509V23.3509Z" fill="white"/>
<path d="M20.3559 20.5457L16.7993 22.5055L17.0817 23.0179L20.6382 21.0581L20.3559 20.5457Z" fill="white"/>
<path d="M28.9401 21.404C28.506 21.404 28.0816 21.2753 27.7206 21.0341C27.3597 20.7929 27.0783 20.4501 26.9122 20.049C26.7461 19.6479 26.7026 19.2066 26.7873 18.7808C26.872 18.355 27.081 17.9639 27.388 17.6569C27.695 17.35 28.0861 17.1409 28.5119 17.0562C28.9377 16.9715 29.379 17.015 29.7801 17.1811C30.1812 17.3473 30.524 17.6286 30.7652 17.9896C31.0064 18.3505 31.1351 18.7749 31.1351 19.209C31.1345 19.791 30.903 20.3489 30.4915 20.7604C30.08 21.172 29.5221 21.4034 28.9401 21.404V21.404ZM28.9401 17.5994C28.6218 17.5994 28.3105 17.6938 28.0458 17.8706C27.7811 18.0475 27.5748 18.2989 27.453 18.593C27.3311 18.8872 27.2993 19.2108 27.3614 19.5231C27.4235 19.8353 27.5768 20.1221 27.8019 20.3472C28.027 20.5724 28.3138 20.7257 28.6261 20.7878C28.9383 20.8499 29.262 20.818 29.5561 20.6962C29.8502 20.5743 30.1016 20.368 30.2785 20.1033C30.4554 19.8386 30.5498 19.5274 30.5498 19.209C30.5492 18.7823 30.3795 18.3732 30.0777 18.0714C29.776 17.7697 29.3669 17.5999 28.9401 17.5994V17.5994Z" fill="white"/>
</svg>
