<svg width="64" height="64" viewBox="0 0 64 64" fill="none" xmlns="http://www.w3.org/2000/svg">
<circle cx="32.0804" cy="32.3388" r="31.5836" fill="url(#paint0_linear_2702_586)"/>
<path d="M47.972 22.4039C48.5958 23.4845 48.5122 24.7711 47.7529 25.7614L31.0824 47.5154C30.3949 48.4124 29.2628 48.8698 28.1053 48.6476C26.9718 48.4296 26.073 47.6033 25.7611 46.492L23.2944 37.713L23.0375 36.7998L22.3752 36.1208L16.0057 29.5952C15.1992 28.7694 14.933 27.5779 15.311 26.4872C15.6851 25.409 16.6233 24.6267 17.7801 24.4751L44.9548 20.915C46.1921 20.7525 47.3482 21.3234 47.972 22.4039Z" fill="white"/>
<path d="M23.2944 37.713L25.761 46.492C26.0729 47.6033 26.9716 48.4295 28.1052 48.6476C29.2628 48.8698 30.3948 48.4125 31.0823 47.5154L47.7528 25.7614C48.5121 24.7711 48.5957 23.4845 47.9719 22.4039L23.0375 36.7998L23.2944 37.713Z" fill="white"/>
<path d="M33.184 30.9416C33.4377 31.381 33.2876 31.9433 32.8476 32.1973L23.2942 37.7129L23.0373 36.7998L22.375 36.1207L31.9283 30.6051C32.3683 30.3512 32.9303 30.5022 33.184 30.9416Z" fill="url(#paint1_linear_2702_586)"/>
<path d="M23.2946 37.713L32.8479 32.1973C33.2878 31.9433 33.4381 31.3811 33.1844 30.9416L23.0377 36.7998L23.2946 37.713Z" fill="url(#paint2_linear_2702_586)"/>
<defs>
<linearGradient id="paint0_linear_2702_586" x1="45.2974" y1="2.52747" x2="18.1511" y2="70.9288" gradientUnits="userSpaceOnUse">
<stop stop-color="#747DEF"/>
<stop offset="1" stop-color="#5E3BE1"/>
</linearGradient>
<linearGradient id="paint1_linear_2702_586" x1="29.741" y1="31.9275" x2="30.7675" y2="33.9859" gradientUnits="userSpaceOnUse">
<stop stop-color="#747DEF"/>
<stop offset="1" stop-color="#5E3BE1"/>
</linearGradient>
<linearGradient id="paint2_linear_2702_586" x1="30.1881" y1="32.7013" x2="30.7332" y2="33.7158" gradientUnits="userSpaceOnUse">
<stop stop-color="#747DEF"/>
<stop offset="1" stop-color="#5E3BE1"/>
</linearGradient>
</defs>
</svg>
