<svg width="19" height="17" viewBox="0 0 19 17" fill="none" xmlns="http://www.w3.org/2000/svg">
<path d="M17.294 1.60618C16.3605 0.602796 15.0524 0.0318846 13.682 0.0297682C12.3104 0.0313555 11.0009 0.601964 10.066 1.60554L9.74737 1.94224L9.42873 1.60554C7.57355 -0.39114 4.45097 -0.505806 2.45433 1.34937C2.36585 1.43161 2.2804 1.51702 2.19816 1.60554C0.23017 3.72826 0.23017 7.00882 2.19816 9.13154L9.27911 16.5989C9.52409 16.8575 9.93233 16.8685 10.191 16.6236C10.1994 16.6156 10.2077 16.6073 10.2157 16.5989L17.294 9.13154C19.2619 7.00905 19.2619 3.72867 17.294 1.60618ZM16.3607 8.24335H16.3601L9.74737 15.2179L3.13408 8.24335C1.63065 6.6214 1.63065 4.11504 3.13408 2.49308C4.49938 1.01331 6.80581 0.920527 8.28559 2.28582C8.35743 2.35211 8.42656 2.42124 8.49285 2.49308L9.27911 3.32258C9.53822 3.58003 9.95656 3.58003 10.2157 3.32258L11.0019 2.49373C12.3672 1.01395 14.6737 0.921169 16.1534 2.28647C16.2253 2.35276 16.2944 2.42188 16.3607 2.49373C17.8772 4.11825 17.8883 6.62918 16.3607 8.24335Z" fill="#4152CA"/>
</svg>
