<svg width="19" height="19" viewBox="0 0 19 19" fill="none" xmlns="http://www.w3.org/2000/svg">
<path d="M16.4654 2.77029L10.2615 16.3061C10.2096 16.4195 10.1216 16.5125 10.0112 16.5705C9.90082 16.6286 9.77432 16.6484 9.65149 16.6269C9.52865 16.6054 9.4164 16.5438 9.3323 16.4517C9.24819 16.3596 9.19697 16.2423 9.18665 16.118L8.66213 9.82573L2.36984 9.30121C2.24557 9.29089 2.12822 9.23967 2.03615 9.15556C1.94408 9.07146 1.88248 8.95921 1.86098 8.83637C1.83949 8.71354 1.85931 8.58704 1.91735 8.47667C1.97538 8.36629 2.06837 8.27827 2.18175 8.22636L15.7176 2.02244C15.8222 1.97448 15.939 1.95969 16.0523 1.98006C16.1656 2.00042 16.2699 2.05496 16.3513 2.13635C16.4327 2.21774 16.4873 2.32209 16.5076 2.43538C16.528 2.54867 16.5132 2.66548 16.4653 2.77012L16.4654 2.77029Z" fill="#080809"/>
</svg>
