<svg width="127" height="34" viewBox="0 0 127 34" fill="none" xmlns="http://www.w3.org/2000/svg">
<circle cx="16.956" cy="17.0766" r="16.243" fill="#F5F5F5"/>
<g clip-path="url(#clip0_2702_631)">
<path d="M22.9609 11.7984C22.628 11.701 14.4857 10.8903 11.6262 14.7536C10.3597 16.465 10.3407 18.8111 11.5627 21.7262C11.2527 22.3696 10.9813 23.0473 10.7602 23.7625C10.693 23.9798 10.8146 24.2102 11.0316 24.2772C11.0721 24.2898 11.1131 24.2957 11.1536 24.2957C11.329 24.2957 11.492 24.1823 11.5463 24.0058C13.7258 16.9596 20.8086 13.5507 22.9806 12.6895C23.192 12.6057 23.4744 11.9487 22.9609 11.7984Z" fill="#84829A"/>
<path d="M12.8699 22.6079C14.0488 23.1025 15.2275 23.3559 16.3236 23.3559C17.3088 23.3559 18.2276 23.1534 19.0194 22.7426C20.6128 21.916 21.5866 20.3348 21.8352 18.1696C22.0886 15.9628 22.404 14.5806 22.6671 13.735C20.3251 14.8153 15.3035 17.6156 12.8699 22.6079Z" fill="#84829A"/>
</g>
<circle cx="109.902" cy="17.0766" r="16.243" fill="#F5F5F5"/>
<path d="M114.724 12.7835L109.023 18.5054C108.957 18.4675 108.889 18.4358 108.818 18.4106L105.054 17.1368C104.94 17.1082 104.839 17.0425 104.767 16.95C104.695 16.8575 104.655 16.7435 104.655 16.6262C104.655 16.5088 104.695 16.3949 104.767 16.3023C104.839 16.2098 104.94 16.1441 105.054 16.1156L114.392 12.794C114.453 12.7733 114.517 12.7626 114.582 12.7624C114.63 12.7617 114.678 12.7688 114.724 12.7835V12.7835Z" fill="#84829A"/>
<path d="M115.087 13.4889L111.765 22.8376C111.729 22.9465 111.658 23.0405 111.563 23.1052C111.467 23.1698 111.354 23.2015 111.239 23.1955C111.123 23.2009 111.008 23.1676 110.913 23.1009C110.818 23.0343 110.747 22.938 110.713 22.8271L109.46 19.0634C109.435 18.9921 109.403 18.9234 109.365 18.8581L115.098 13.1572C115.13 13.266 115.126 13.3823 115.087 13.4889V13.4889Z" fill="#84829A"/>
<circle cx="65.685" cy="17.0766" r="16.243" fill="#F5F5F5"/>
<g clip-path="url(#clip1_2702_631)">
<path d="M70.6489 10.7599C70.5789 10.7599 70.5097 10.7761 70.447 10.8075L67.0279 12.5175L63.1617 10.7989C63.1554 10.7962 63.1482 10.7957 63.1414 10.793C63.124 10.7865 63.1062 10.7811 63.0882 10.7768C63.0702 10.772 63.052 10.7682 63.0336 10.7655C62.997 10.7625 62.9601 10.7625 62.9235 10.7655C62.9051 10.7682 62.8869 10.772 62.8689 10.7768C62.8509 10.7811 62.8331 10.7865 62.8157 10.793C62.8089 10.7957 62.8017 10.7962 62.7954 10.7989L58.7347 12.6037C58.5717 12.676 58.4666 12.8377 58.4667 13.016V22.9421C58.4668 23.0948 58.544 23.2371 58.672 23.3202C58.8 23.4036 58.9614 23.4165 59.101 23.3545L62.9785 21.631L66.856 23.3545C66.8628 23.3572 66.87 23.3545 66.8768 23.3586C66.986 23.4075 67.1114 23.4047 67.2183 23.3509C67.2255 23.3478 67.2337 23.3509 67.2409 23.346L70.8504 21.5412C71.0033 21.4648 71.0999 21.3084 71.0999 21.1374V11.2113C71.1 10.9621 70.8981 10.76 70.6489 10.7599ZM62.5274 20.8441L59.369 22.2478V13.3093L62.5274 11.9057V20.8441ZM66.588 22.2478L63.4297 20.8441V11.9057L66.588 13.3093V22.2478ZM70.1975 20.8586L67.4904 22.2121V13.2949L70.1975 11.9413V20.8586V20.8586Z" fill="#84829A"/>
</g>
<defs>
<clipPath id="clip0_2702_631">
<rect width="12.6334" height="12.6334" fill="white" transform="translate(10.6393 11.6623)"/>
</clipPath>
<clipPath id="clip1_2702_631">
<rect width="12.6334" height="12.6334" fill="white" transform="translate(58.4658 10.7599)"/>
</clipPath>
</defs>
</svg>
