<svg width="91" height="33" viewBox="0 0 91 33" fill="none" xmlns="http://www.w3.org/2000/svg">
<rect x="0.136597" y="0.572266" width="90.2388" height="31.5836" rx="15.7918" fill="#080809"/>
<path d="M19.7989 22.2293C17.65 22.2169 15.8726 17.8304 15.8726 15.5964C15.8726 11.9473 18.61 11.1484 19.665 11.1484C20.1405 11.1484 20.6482 11.3351 21.0959 11.5003C21.4091 11.6156 21.7329 11.7346 21.913 11.7346C22.0208 11.7346 22.2749 11.6333 22.4992 11.5445C22.9775 11.3541 23.5728 11.1174 24.2659 11.1174C24.2672 11.1174 24.2688 11.1174 24.27 11.1174C24.7876 11.1174 26.3569 11.231 27.3004 12.6479L27.5214 12.98L27.2033 13.22C26.749 13.5628 25.9199 14.1883 25.9199 15.4271C25.9199 16.8943 26.8588 17.4586 27.3099 17.73C27.509 17.8498 27.7151 17.9733 27.7151 18.2435C27.7151 18.4199 26.3074 22.2074 24.263 22.2074C23.7628 22.2074 23.4092 22.057 23.0973 21.9244C22.7817 21.7902 22.5095 21.6745 22.0596 21.6745C21.8316 21.6745 21.5433 21.7823 21.238 21.8968C20.8209 22.0525 20.3487 22.2293 19.8129 22.2293H19.7989Z" fill="white"/>
<path d="M24.4825 7.79126C24.5358 9.71098 23.1628 11.0428 21.7916 10.9593C21.5656 9.42726 23.1627 7.79126 24.4825 7.79126Z" fill="white"/>
<path d="M35.3568 12.3033H36.3043L35.0157 8.51326H33.9112L32.6226 12.3033H33.5701L33.7596 11.7077H35.1673L35.3568 12.3033ZM34.0195 10.8956L34.4634 9.50408L34.9074 10.8956H34.0195Z" fill="white"/>
<path d="M38.2218 9.59613L37.6587 11.3125L37.0956 9.59613H36.1969L37.1985 12.3033H38.1189L39.1206 9.59613H38.2218Z" fill="white"/>
<path d="M41.2782 9.59613V9.8506C41.0996 9.64485 40.8343 9.52032 40.4715 9.52032C39.7622 9.52032 39.1775 10.143 39.1775 10.9497C39.1775 11.7564 39.7622 12.3791 40.4715 12.3791C40.8343 12.3791 41.0996 12.2546 41.2782 12.0488V12.3033H42.0904V9.59613H41.2782ZM40.6339 11.6103C40.2604 11.6103 39.9896 11.3558 39.9896 10.9497C39.9896 10.5436 40.2604 10.2892 40.6339 10.2892C41.0075 10.2892 41.2782 10.5436 41.2782 10.9497C41.2782 11.3558 41.0075 11.6103 40.6339 11.6103Z" fill="white"/>
<path d="M42.6862 12.3033H43.4984V8.35083H42.6862V12.3033Z" fill="white"/>
<path d="M44.4988 9.35789C44.7641 9.35789 44.986 9.13591 44.986 8.87061C44.986 8.6053 44.7641 8.38332 44.4988 8.38332C44.2335 8.38332 44.0115 8.6053 44.0115 8.87061C44.0115 9.13591 44.2335 9.35789 44.4988 9.35789ZM44.0927 12.3033H44.9048V9.59613H44.0927V12.3033Z" fill="white"/>
<path d="M47.118 9.52032C46.7553 9.52032 46.49 9.64485 46.3113 9.8506V8.51326H45.4991V12.3033H46.3113V12.0488C46.49 12.2546 46.7553 12.3791 47.118 12.3791C47.8273 12.3791 48.412 11.7564 48.412 10.9497C48.412 10.143 47.8273 9.52032 47.118 9.52032ZM46.9556 11.6103C46.582 11.6103 46.3113 11.3558 46.3113 10.9497C46.3113 10.5436 46.582 10.2892 46.9556 10.2892C47.3292 10.2892 47.5999 10.5436 47.5999 10.9497C47.5999 11.3558 47.3292 11.6103 46.9556 11.6103Z" fill="white"/>
<path d="M48.8725 12.3033H49.6847V8.35083H48.8725V12.3033Z" fill="white"/>
<path d="M51.0045 11.2746H52.9266C52.9482 11.1717 52.9591 11.0634 52.9591 10.9497C52.9591 10.1321 52.3743 9.52032 51.5838 9.52032C50.7284 9.52032 50.1436 10.143 50.1436 10.9497C50.1436 11.7564 50.7175 12.3791 51.6434 12.3791C52.1577 12.3791 52.5584 12.1896 52.8237 11.8214L52.174 11.4478C52.0657 11.5669 51.8762 11.6536 51.6542 11.6536C51.3564 11.6536 51.1074 11.5561 51.0045 11.2746ZM50.9883 10.6682C51.0641 10.392 51.2698 10.2404 51.5784 10.2404C51.8221 10.2404 52.0657 10.3541 52.1523 10.6682H50.9883Z" fill="white"/>
<path d="M56.0727 12.3791C56.8686 12.3791 57.5075 11.7564 57.5075 10.9497C57.5075 10.143 56.8686 9.52032 56.0727 9.52032C55.2768 9.52032 54.6379 10.143 54.6379 10.9497C54.6379 11.7564 55.2768 12.3791 56.0727 12.3791ZM56.0727 11.5886C55.7208 11.5886 55.4501 11.3341 55.4501 10.9497C55.4501 10.5653 55.7208 10.3108 56.0727 10.3108C56.4247 10.3108 56.6954 10.5653 56.6954 10.9497C56.6954 11.3341 56.4247 11.5886 56.0727 11.5886Z" fill="white"/>
<path d="M59.5533 9.52032C59.196 9.52032 58.9252 9.65027 58.779 9.8506V9.59613H57.9669V12.3033H58.779V10.8252C58.779 10.4408 58.9848 10.2675 59.2826 10.2675C59.5425 10.2675 59.7536 10.4245 59.7536 10.7602V12.3033H60.5658V10.6411C60.5658 9.91016 60.1001 9.52032 59.5533 9.52032Z" fill="white"/>
<path d="M64.0635 10.3758V9.59613H63.5058V8.83812L62.6936 9.08176V9.59613H62.2605V10.3758H62.6936V11.3341C62.6936 12.0921 63.0023 12.4116 64.0635 12.3033V11.5669C63.7061 11.5886 63.5058 11.5669 63.5058 11.3341V10.3758H64.0635Z" fill="white"/>
<path d="M66.1097 9.52032C65.7524 9.52032 65.4816 9.65027 65.3355 9.8506V8.51326H64.5233V12.3033H65.3355V10.8252C65.3355 10.4408 65.5412 10.2675 65.839 10.2675C66.0989 10.2675 66.31 10.4245 66.31 10.7602V12.3033H67.1222V10.6411C67.1222 9.91016 66.6566 9.52032 66.1097 9.52032Z" fill="white"/>
<path d="M68.4054 11.2746H70.3275C70.3492 11.1717 70.36 11.0634 70.36 10.9497C70.36 10.1321 69.7753 9.52032 68.9848 9.52032C68.1293 9.52032 67.5445 10.143 67.5445 10.9497C67.5445 11.7564 68.1185 12.3791 69.0443 12.3791C69.5587 12.3791 69.9593 12.1896 70.2246 11.8214L69.5749 11.4478C69.4666 11.5669 69.2771 11.6536 69.0551 11.6536C68.7574 11.6536 68.5083 11.5561 68.4054 11.2746ZM68.3892 10.6682C68.465 10.392 68.6707 10.2404 68.9793 10.2404C69.223 10.2404 69.4666 10.3541 69.5533 10.6682H68.3892Z" fill="white"/>
<path d="M37.1796 22.2296H38.7588L36.6111 15.9128H34.7702L32.6226 22.2296H34.2017L34.5176 21.2369H36.8638L37.1796 22.2296ZM34.9507 19.8833L35.6907 17.5642L36.4306 19.8833H34.9507Z" fill="white"/>
<path d="M41.9504 17.5913C41.3458 17.5913 40.9037 17.7988 40.6059 18.1417V17.7176H39.2523V24.0343H40.6059V21.8054C40.9037 22.1483 41.3458 22.3559 41.9504 22.3559C43.1326 22.3559 44.1071 21.3181 44.1071 19.9736C44.1071 18.629 43.1326 17.5913 41.9504 17.5913ZM41.6797 21.0745C41.0571 21.0745 40.6059 20.6504 40.6059 19.9736C40.6059 19.2968 41.0571 18.8727 41.6797 18.8727C42.3024 18.8727 42.7536 19.2968 42.7536 19.9736C42.7536 20.6504 42.3024 21.0745 41.6797 21.0745Z" fill="white"/>
<path d="M47.5727 17.5913C46.9681 17.5913 46.526 17.7988 46.2282 18.1417V17.7176H44.8746V24.0343H46.2282V21.8054C46.526 22.1483 46.9681 22.3559 47.5727 22.3559C48.7549 22.3559 49.7294 21.3181 49.7294 19.9736C49.7294 18.629 48.7549 17.5913 47.5727 17.5913ZM47.302 21.0745C46.6794 21.0745 46.2282 20.6504 46.2282 19.9736C46.2282 19.2968 46.6794 18.8727 47.302 18.8727C47.9247 18.8727 48.3759 19.2968 48.3759 19.9736C48.3759 20.6504 47.9247 21.0745 47.302 21.0745Z" fill="white"/>
<path d="M50.4969 22.2296H51.8505V15.6421H50.4969V22.2296Z" fill="white"/>
<path d="M54.0502 20.515H57.2537C57.2898 20.3436 57.3078 20.1631 57.3078 19.9736C57.3078 18.611 56.3332 17.5913 55.0157 17.5913C53.59 17.5913 52.6154 18.629 52.6154 19.9736C52.6154 21.3181 53.5719 22.3559 55.115 22.3559C55.9723 22.3559 56.64 22.0401 57.0822 21.4264L55.9993 20.8038C55.8189 21.0023 55.503 21.1467 55.133 21.1467C54.6367 21.1467 54.2216 20.9843 54.0502 20.515ZM54.0231 19.5043C54.1494 19.0441 54.4924 18.7915 55.0067 18.7915C55.4128 18.7915 55.8189 18.981 55.9632 19.5043H54.0231Z" fill="white"/>
<path d="M62.5875 22.3559C63.9591 22.3559 64.9337 21.634 64.9337 20.4158C64.9337 19.0802 63.8598 18.7463 62.9033 18.4576C61.9197 18.1598 61.7663 17.9613 61.7663 17.6725C61.7663 17.4198 61.9919 17.1942 62.4431 17.1942C63.0206 17.1942 63.3184 17.474 63.535 17.9252L64.7532 17.2123C64.293 16.2828 63.4808 15.7865 62.4431 15.7865C61.3512 15.7865 60.3225 16.4904 60.3225 17.7086C60.3225 18.9178 61.2429 19.369 62.1814 19.6307C63.1289 19.8924 63.4899 20.0458 63.4899 20.4338C63.4899 20.6774 63.3184 20.9482 62.6326 20.9482C61.9197 20.9482 61.5317 20.5962 61.3061 20.0728L60.0608 20.7948C60.4127 21.7242 61.261 22.3559 62.5875 22.3559Z" fill="white"/>
<path d="M68.1219 19.0171V17.7176H67.1925V16.4543L65.8389 16.8603V17.7176H65.117V19.0171H65.8389V20.6143C65.8389 21.8776 66.3533 22.41 68.1219 22.2296V21.0023C67.5264 21.0384 67.1925 21.0023 67.1925 20.6143V19.0171H68.1219Z" fill="white"/>
<path d="M70.9659 22.3559C72.2924 22.3559 73.3573 21.3181 73.3573 19.9736C73.3573 18.629 72.2924 17.5913 70.9659 17.5913C69.6394 17.5913 68.5746 18.629 68.5746 19.9736C68.5746 21.3181 69.6394 22.3559 70.9659 22.3559ZM70.9659 21.0384C70.3794 21.0384 69.9282 20.6143 69.9282 19.9736C69.9282 19.3329 70.3794 18.9088 70.9659 18.9088C71.5525 18.9088 72.0037 19.3329 72.0037 19.9736C72.0037 20.6143 71.5525 21.0384 70.9659 21.0384Z" fill="white"/>
<path d="M75.4765 18.5207V17.7176H74.1229V22.2296H75.4765V20.1902C75.4765 19.2968 76.2706 19.0712 76.83 19.1614V17.6274C76.2615 17.6274 75.6569 17.9161 75.4765 18.5207Z" fill="white"/>
<path d="M78.5398 20.515H81.7433C81.7794 20.3436 81.7974 20.1631 81.7974 19.9736C81.7974 18.611 80.8228 17.5913 79.5053 17.5913C78.0796 17.5913 77.105 18.629 77.105 19.9736C77.105 21.3181 78.0615 22.3559 79.6046 22.3559C80.4619 22.3559 81.1296 22.0401 81.5718 21.4264L80.4889 20.8038C80.3085 21.0023 79.9926 21.1467 79.6227 21.1467C79.1263 21.1467 78.7112 20.9843 78.5398 20.515ZM78.5127 19.5043C78.6391 19.0441 78.982 18.7915 79.4963 18.7915C79.9024 18.7915 80.3085 18.981 80.4529 19.5043H78.5127Z" fill="white"/>
</svg>
